<?xml version="1.0" encoding="UTF-8"?>
<svg xmlns="http://www.w3.org/2000/svg" xmlns:xlink="http://www.w3.org/1999/xlink" width="3750" height="2250" viewBox="0 0 3750 2250">
<path fill-rule="evenodd" fill="rgb(100%, 100%, 100%)" fill-opacity="1" stroke-width="120" stroke-linecap="butt" stroke-linejoin="miter" stroke="rgb(0%, 0%, 0%)" stroke-opacity="1" stroke-miterlimit="4" d="M 24.804688 22500 L 37475.195312 22500 C 37488.90625 22500 37500 22488.90625 37500 22475.195312 L 37500 24.804688 C 37500 11.054688 37488.90625 0 37475.195312 0 L 24.804688 0 C 11.054688 0 0 11.054688 0 24.804688 L 0 22475.195312 C 0 22488.90625 11.054688 22500 24.804688 22500 Z M 24.804688 22500 " transform="matrix(0.1, 0, 0, -0.1, 0, 2250)"/>
<path fill="none" stroke-width="120" stroke-linecap="round" stroke-linejoin="round" stroke="rgb(0%, 0%, 0%)" stroke-opacity="1" stroke-miterlimit="4" d="M 37500 18127.5 C 37500 18127.5 36984.101562 18781.289062 36425.195312 18523.007812 C 35456.992188 18075.585938 36154.414062 18438.085938 35164.296875 18695.898438 C 34826.601562 18783.789062 33229.6875 18014.804688 30930 16954.609375 M 25002.890625 14351.015625 C 21406.71875 12956.210938 17220.507812 11715.195312 13743.90625 11626.601562 M 13743.90625 11626.601562 C 13510.703125 11620.585938 13280.195312 11613.59375 13052.109375 11608.59375 M 7397.382812 11381.71875 C 6571.679688 11352.8125 5813.710938 11390.390625 5120.039062 11361.796875 M 3977.304688 11312.5 C 3541.875 11292.890625 2988.203125 11258.515625 2621.992188 11240.507812 M 422.617188 11126.914062 C 141.757812 11109.414062 -0.898438 11099.414062 0 11099.21875 " transform="matrix(0.1, 0, 0, -0.1, 0, 2250)"/>
<path fill="none" stroke-width="120" stroke-linecap="round" stroke-linejoin="round" stroke="rgb(0%, 0%, 0%)" stroke-opacity="1" stroke-miterlimit="4" d="M 33555.3125 18156.71875 C 33555.3125 18156.71875 32008.203125 16294.101562 34754.101562 17681.289062 C 34496.796875 17209.609375 34313.398438 16336.484375 35311.015625 17403.007812 C 35649.6875 17101.210938 35938.203125 16275.585938 36196.914062 17405.898438 C 36499.804688 17066.09375 37122.8125 16368.984375 36910.195312 17476.210938 C 37186.914062 17189.101562 37500 17063.085938 37500 17063.085938 " transform="matrix(0.1, 0, 0, -0.1, 0, 2250)"/>
<path fill="none" stroke-width="120" stroke-linecap="round" stroke-linejoin="round" stroke="rgb(0%, 0%, 0%)" stroke-opacity="1" stroke-miterlimit="4" d="M 24382.890625 21663.59375 C 24382.890625 21663.59375 25115.585938 20770.117188 23408.984375 20547.382812 C 23506.796875 20359.882812 24457.695312 19579.101562 23265.703125 19318.398438 C 23738.007812 19076.71875 24451.289062 18465.898438 23952.890625 17825.703125 C 24448.007812 18017.617188 25027.695312 18202.1875 25161.289062 17040.585938 C 25454.296875 17418.515625 25727.890625 17888.710938 26496.601562 17491.796875 C 26718.007812 18038.085938 27304.804688 18590.507812 28102.617188 18088.007812 C 27536.210938 18669.6875 28209.6875 19659.6875 28965.195312 19397.5 C 28431.09375 20003.90625 28392.382812 19632.890625 28900.390625 20708.789062 C 27948.398438 20595.78125 27814.6875 20414.882812 27677.890625 21664.414062 C 26922.304688 21421.210938 26802.695312 21521.484375 26346.71875 22089.882812 C 26314.492188 21682.617188 25041.015625 20912.382812 24382.890625 21663.59375 Z M 24382.890625 21663.59375 " transform="matrix(0.1, 0, 0, -0.1, 0, 2250)"/>
<path fill="none" stroke-width="120" stroke-linecap="butt" stroke-linejoin="miter" stroke="rgb(0%, 0%, 0%)" stroke-opacity="1" stroke-miterlimit="4" d="M 27404.609375 19687.5 C 27404.609375 18993.398438 26841.914062 18430.703125 26147.695312 18430.703125 C 25453.59375 18430.703125 24890.898438 18993.398438 24890.898438 19687.5 C 24890.898438 20381.71875 25453.59375 20944.414062 26147.695312 20944.414062 C 26841.914062 20944.414062 27404.609375 20381.71875 27404.609375 19687.5 Z M 27404.609375 19687.5 " transform="matrix(0.1, 0, 0, -0.1, 0, 2250)"/>
<path fill="none" stroke-width="120" stroke-linecap="round" stroke-linejoin="round" stroke="rgb(0%, 0%, 0%)" stroke-opacity="1" stroke-miterlimit="4" d="M 771.445312 8308.007812 C 812.539062 8606.25 967.304688 9273.671875 805.429688 9275.039062 C 643.554688 9276.40625 115.195312 9034.648438 115.195312 9034.648438 C 115.195312 9034.648438 829.882812 9419.257812 903.164062 10022.304688 C 396.171875 10012.695312 185.390625 10118.984375 185.390625 10118.984375 C 185.390625 10118.984375 753.515625 10159.6875 826.796875 11080 C 344.257812 10971.484375 422.617188 11126.914062 422.617188 11126.914062 C 422.617188 11126.914062 1019.21875 11478.398438 1074.21875 12243.59375 C 231.25 11747.695312 491.835938 11848.007812 369.6875 11826.015625 C 247.5 11803.984375 1448.085938 12897.8125 1501.796875 14420.78125 C 1702.96875 13119.492188 2556.679688 12355.703125 2741.484375 12006.914062 C 2394.140625 12258.90625 1928.007812 12330.3125 1964.84375 12209.492188 C 2201.09375 11435 2523.203125 11313.789062 2958.632812 11015.507812 C 2454.6875 11012.695312 2057.65625 11268.203125 2057.65625 11268.203125 L 3035 10139.101562 L 2317.265625 10409.6875 C 2317.265625 10409.6875 3166.328125 9699.492188 3007.5 9740.703125 C 2848.671875 9781.914062 2372.226562 9795.664062 2372.226562 9795.664062 L 2858.007812 8927.34375 " transform="matrix(0.1, 0, 0, -0.1, 0, 2250)"/>
<path fill="none" stroke-width="120" stroke-linecap="round" stroke-linejoin="round" stroke="rgb(0%, 0%, 0%)" stroke-opacity="1" stroke-miterlimit="4" d="M 3733.59375 8867.421875 L 4067.304688 9497.578125 L 3630.546875 9356.09375 L 4171.132812 10325.898438 C 4171.132812 10325.898438 3822.96875 10007.1875 3517.539062 9732.460938 C 3978.710938 10351.992188 4278.046875 13452.382812 4461.289062 13589.804688 C 4461.289062 13589.804688 4872.265625 11875.195312 5191.953125 11173.515625 C 4682.226562 11273.59375 4691.054688 11321.914062 4691.054688 11321.914062 C 4691.054688 11321.914062 5289.179688 10718.90625 5218.4375 10748.085938 C 5147.734375 10777.304688 4854.570312 10793.203125 4854.570312 10793.203125 C 4854.570312 10793.203125 5256.757812 9596.523438 5184.570312 9618.398438 C 5112.382812 9640.273438 4727.890625 9790 4727.890625 9790 L 5063.75 9260.585938 C 5063.75 9260.585938 4306.054688 9184.179688 5085.351562 8727.617188 " transform="matrix(0.1, 0, 0, -0.1, 0, 2250)"/>
<path fill="none" stroke-width="120" stroke-linecap="round" stroke-linejoin="round" stroke="rgb(0%, 0%, 0%)" stroke-opacity="1" stroke-miterlimit="4" d="M 7509.804688 15642.109375 C 7397.851562 15579.101562 8545.429688 13871.40625 9865 13248.59375 C 11232.109375 12603.398438 9736.054688 11850.703125 8572.226562 11879.882812 C 7408.398438 11909.101562 5063.75 9260.585938 5085.351562 8727.617188 " transform="matrix(0.1, 0, 0, -0.1, 0, 2250)"/>
<path fill="none" stroke-width="120" stroke-linecap="round" stroke-linejoin="round" stroke="rgb(0%, 0%, 0%)" stroke-opacity="1" stroke-miterlimit="4" d="M 8017.03125 15458.90625 C 7899.179688 15405.195312 8472.109375 14217.617188 10737.109375 13656.289062 C 12376.796875 13249.882812 11125 12346.40625 11125 12346.40625 C 11125 12346.40625 12320.507812 11846.289062 14039.296875 12611.09375 C 15289.492188 13167.382812 16531.09375 13748.710938 16531.09375 13748.710938 " transform="matrix(0.1, 0, 0, -0.1, 0, 2250)"/>
<path fill="none" stroke-width="120" stroke-linecap="round" stroke-linejoin="round" stroke="rgb(0%, 0%, 0%)" stroke-opacity="1" stroke-miterlimit="4" d="M 16853.515625 13667.8125 C 16751.796875 13645.3125 14432.890625 11865.117188 13099.6875 11637.1875 C 11766.40625 11409.296875 8299.765625 9332.617188 9344.257812 6837.929688 " transform="matrix(0.1, 0, 0, -0.1, 0, 2250)"/>
<path fill="none" stroke-width="120" stroke-linecap="round" stroke-linejoin="round" stroke="rgb(0%, 0%, 0%)" stroke-opacity="1" stroke-miterlimit="4" d="M 7634.921875 10956.210938 C 7509.6875 10969.414062 5659.375 10113.398438 5519.414062 8951.875 " transform="matrix(0.1, 0, 0, -0.1, 0, 2250)"/>
<path fill="none" stroke-width="120" stroke-linecap="round" stroke-linejoin="round" stroke="rgb(0%, 0%, 0%)" stroke-opacity="1" stroke-miterlimit="4" d="M 11625.78125 11654.609375 C 11625.78125 11654.609375 10778.710938 10919.101562 9735.703125 10406.289062 C 8692.65625 9893.398438 8586.601562 8642.421875 8586.601562 8642.421875 " transform="matrix(0.1, 0, 0, -0.1, 0, 2250)"/>
<path fill="none" stroke-width="120" stroke-linecap="round" stroke-linejoin="round" stroke="rgb(0%, 0%, 0%)" stroke-opacity="1" stroke-miterlimit="4" d="M 9383.59375 9754.921875 C 9284.882812 9737.03125 8912.1875 8812.03125 8910.703125 7845.976562 " transform="matrix(0.1, 0, 0, -0.1, 0, 2250)"/>
<path fill="none" stroke-width="120" stroke-linecap="butt" stroke-linejoin="miter" stroke="rgb(0%, 0%, 0%)" stroke-opacity="1" stroke-miterlimit="4" d="M 7181.25 20096.914062 C 6798.476562 20096.289062 6646.445312 19624.101562 6541.5625 19070.195312 C 6457.695312 19083.085938 6189.023438 19179.6875 6104.335938 19179.804688 C 5302.617188 19177.617188 4589.648438 18604.882812 4326.40625 17751.71875 C 4290.039062 17753.90625 4253.632812 17755.117188 4217.148438 17755.3125 C 3603.359375 17753.710938 3038.007812 17453.59375 2737.304688 16969.804688 C 2674.570312 16979.21875 2610.664062 16983.90625 2546.5625 16983.984375 C 2029.101562 16983.984375 1609.609375 16683.203125 1609.648438 16312.1875 C 1609.804688 16192.5 1654.492188 16075 1739.179688 15971.914062 C 1340.351562 15881.796875 1097.890625 15724.296875 1096.953125 15554.804688 C 1096.953125 15282.1875 1711.015625 15061.210938 2468.476562 15061.210938 C 2666.171875 15061.40625 2861.328125 15077.1875 3040.585938 15107.109375 C 3356.5625 14831.484375 3778.085938 14676.914062 4217.148438 14675.507812 C 4649.492188 14676.71875 5065.117188 14826.40625 5379.804688 15094.492188 C 5609.140625 14985.507812 5855.390625 14928.59375 6104.335938 14927.304688 C 6703.554688 14929.414062 7266.25 15251.992188 7620.507812 15796.601562 C 7896.992188 15436.484375 8423.828125 15212.695312 8996.210938 15212.1875 C 9768.945312 15213.007812 10426.484375 15616.914062 10547.8125 16165.195312 C 11200.195312 16285.898438 11643.59375 16637.1875 11645 17034.414062 C 11644.882812 17271.914062 11485.585938 17500 11200.585938 17670.585938 C 11216.914062 17705.703125 11225.585938 17741.40625 11226.601562 17777.1875 C 11226.40625 18059.101562 10749.804688 18304.492188 10072.695312 18371.210938 C 10075 18386.289062 10076.601562 18401.40625 10077.5 18416.484375 C 10077.5 18872.5 9472.03125 19242.109375 8725.15625 19242.1875 C 8473.398438 19241.71875 8226.875 19198.28125 8013.28125 19116.992188 C 7918.554688 19692.5 7575.273438 20096.796875 7181.25 20096.914062 Z M 7181.25 20096.914062 " transform="matrix(0.1, 0, 0, -0.1, 0, 2250)"/>
<path fill="none" stroke-width="120" stroke-linecap="round" stroke-linejoin="round" stroke="rgb(0%, 0%, 0%)" stroke-opacity="1" stroke-miterlimit="4" d="M 13291.40625 14725.898438 C 13291.40625 14725.898438 9564.023438 14235.703125 12533.984375 15713.28125 C 12383.710938 16268.59375 13515.117188 17228.007812 14080.898438 16760.195312 C 14110.3125 17025.195312 15173.90625 17471.796875 15763.203125 16968.203125 C 15615.898438 17621.601562 16090.3125 18160.898438 17153.90625 17795.195312 C 17478.007812 18278.90625 19125 19478.203125 19351.914062 17864.101562 C 19711.40625 18008.515625 22510.390625 18341.210938 20574.6875 16615.703125 C 21040.195312 16651.484375 22946.484375 16544.21875 21912.304688 15419.101562 C 22463.28125 15449.609375 23957.109375 15334.296875 23064.296875 14690.195312 C 23559.296875 14601.40625 23845.195312 13620.78125 20804.492188 14499.414062 C 20397.890625 14101.914062 20173.90625 13243.085938 18871.601562 14125.703125 C 17927.382812 13203.710938 16578.59375 13656.71875 15448.007812 14157.5 C 14911.796875 13464.414062 12468.398438 13343.789062 13291.40625 14725.898438 Z M 13291.40625 14725.898438 " transform="matrix(0.1, 0, 0, -0.1, 0, 2250)"/>
<path fill="none" stroke-width="120" stroke-linecap="round" stroke-linejoin="round" stroke="rgb(0%, 0%, 0%)" stroke-opacity="1" stroke-miterlimit="4" d="M 25364.101562 13716.09375 C 25364.101562 13716.09375 24211.210938 15133.515625 25924.492188 14574.6875 C 25713.203125 15135.585938 25752.304688 16909.296875 26659.492188 15882.382812 C 26510.195312 16396.914062 27334.804688 17579.6875 27495.507812 16583.90625 C 27637.890625 16963.007812 28595.703125 18094.101562 28600.3125 16810.117188 C 28935.585938 17249.101562 30283.789062 17846.210938 29953.085938 16704.6875 C 30483.59375 16989.804688 31236.992188 17285.3125 30899.296875 16310.117188 C 31328.789062 16560.117188 32343.984375 16802.890625 31611.289062 16061.09375 C 31730.703125 16147.890625 32833.203125 16159.296875 31648.085938 15381.40625 " transform="matrix(0.1, 0, 0, -0.1, 0, 2250)"/>
<path fill="none" stroke-width="120" stroke-linecap="round" stroke-linejoin="round" stroke="rgb(0%, 0%, 0%)" stroke-opacity="1" stroke-miterlimit="4" d="M 28510.585938 14498.90625 C 27979.492188 14935.898438 29282.382812 16209.882812 30005.898438 15167.617188 C 30364.21875 15413.398438 31301.289062 16075.585938 31668.789062 15260.585938 C 32006.40625 15491.914062 33274.21875 15736.796875 32775.78125 14735.78125 C 33154.804688 14786.40625 33848.398438 14970.3125 33499.296875 14212.109375 C 33869.101562 14250.3125 34792.304688 14491.992188 34335.3125 13848.398438 C 34622.382812 13857.695312 35743.203125 13588.085938 34796.914062 13254.414062 C 34622.382812 13032.304688 34592.5 12531.289062 33421.210938 13095.390625 C 33104.21875 12888.789062 33000.898438 12398.085938 32194.6875 13178.007812 C 31645.78125 13076.796875 31928.28125 12528.203125 30483.59375 13170.78125 C 29888.789062 13048.90625 30023.398438 12820.585938 29047.304688 13041.601562 " transform="matrix(0.1, 0, 0, -0.1, 0, 2250)"/>
<path fill="none" stroke-width="120" stroke-linecap="round" stroke-linejoin="round" stroke="rgb(0%, 0%, 0%)" stroke-opacity="1" stroke-miterlimit="4" d="M 28724.296875 13695.585938 C 28724.296875 13695.585938 29206.601562 14977.5 27660.898438 14332.890625 C 27291.09375 14673.789062 26627.304688 15008.515625 26294.296875 14338.085938 C 25779.804688 14393.90625 25410.117188 14104.609375 25302.109375 13462.109375 C 24799.101562 13771.992188 24558.007812 14156.289062 24071.09375 13392.890625 C 23589.296875 13990.195312 20899.804688 12681.796875 23537.1875 12862.8125 C 23490.703125 12463.710938 24034.804688 12119.492188 24420.195312 12761.71875 C 24771.601562 12284.414062 25405.507812 12220.390625 25956.71875 12745.195312 C 26241.484375 12390.898438 26321.914062 11846.40625 27079.804688 12469.414062 C 27038.203125 12061.796875 27481.71875 11848.789062 27968.710938 12272.109375 C 28751.914062 12404.296875 28935.585938 12268.90625 28763.398438 12862.890625 C 28995.3125 12995.195312 29877.304688 13491.015625 28724.296875 13695.585938 Z M 28724.296875 13695.585938 " transform="matrix(0.1, 0, 0, -0.1, 0, 2250)"/>
<path fill="none" stroke-width="120" stroke-linecap="round" stroke-linejoin="round" stroke="rgb(0%, 0%, 0%)" stroke-opacity="1" stroke-miterlimit="4" d="M 28060.117188 12255.3125 C 28060.117188 12255.3125 28765.195312 11515.703125 31025.3125 10986.796875 C 33285.3125 10457.890625 32797.382812 8847.109375 32797.382812 8847.109375 " transform="matrix(0.1, 0, 0, -0.1, 0, 2250)"/>
<path fill="none" stroke-width="120" stroke-linecap="round" stroke-linejoin="round" stroke="rgb(0%, 0%, 0%)" stroke-opacity="1" stroke-miterlimit="4" d="M 28412.304688 12332.382812 C 28412.304688 12332.382812 28804.296875 11654.101562 30432.695312 11509.414062 C 32061.09375 11364.804688 33193.398438 10520.898438 33193.398438 10520.898438 C 33193.398438 10520.898438 32825.898438 11287.382812 31404.21875 11800.78125 C 29982.5 12314.21875 30123.789062 13102.382812 30105.390625 13017.695312 " transform="matrix(0.1, 0, 0, -0.1, 0, 2250)"/>
<path fill="none" stroke-width="120" stroke-linecap="round" stroke-linejoin="round" stroke="rgb(0%, 0%, 0%)" stroke-opacity="1" stroke-miterlimit="4" d="M 30314.296875 13124.6875 C 30251.40625 12826.992188 31443.789062 11907.617188 33001.015625 11621.40625 C 34558.203125 11335.3125 35305.3125 10721.015625 35493.710938 9675.585938 " transform="matrix(0.1, 0, 0, -0.1, 0, 2250)"/>
<path fill="none" stroke-width="120" stroke-linecap="round" stroke-linejoin="round" stroke="rgb(0%, 0%, 0%)" stroke-opacity="1" stroke-miterlimit="4" d="M 26612.1875 12005.898438 C 26612.1875 12005.898438 26409.21875 10135.898438 25860.195312 9559.609375 C 26089.21875 9667.695312 26375.117188 9731.992188 26375.117188 9731.992188 C 26375.117188 9731.992188 25805 8862.734375 25837.5 8941.640625 C 25870 9020.507812 26409.21875 9265.9375 26409.21875 9265.9375 L 26150.585938 8762.460938 " transform="matrix(0.1, 0, 0, -0.1, 0, 2250)"/>
<path fill="none" stroke-width="120" stroke-linecap="round" stroke-linejoin="round" stroke="rgb(0%, 0%, 0%)" stroke-opacity="1" stroke-miterlimit="4" d="M 26612.1875 12005.898438 C 26612.1875 12005.898438 26670.703125 10476.992188 27550.898438 9985.46875 C 27058.789062 9962.070312 27021.40625 9933.59375 27021.40625 9933.59375 C 27021.40625 9933.59375 27110.78125 9805.039062 27675.898438 9577.109375 C 27326.796875 9454.414062 27213.085938 9313.4375 27213.085938 9313.4375 C 27213.085938 9313.4375 27130.3125 8849.609375 27864.296875 8689.648438 C 27508.710938 8501.171875 27577.1875 8264.492188 27502.5 8303.203125 " transform="matrix(0.1, 0, 0, -0.1, 0, 2250)"/>
<path fill="none" stroke-width="120" stroke-linecap="round" stroke-linejoin="round" stroke="rgb(0%, 0%, 0%)" stroke-opacity="1" stroke-miterlimit="4" d="M 22607.5 8319.375 L 22821.601562 9028.554688 L 22454.609375 8764.140625 C 22454.609375 8764.140625 22946.71875 9591.71875 22842.695312 9554.492188 C 22738.789062 9517.226562 22344.101562 9086.992188 22373.398438 9157.109375 C 22469.6875 9277.695312 22747.304688 9813.28125 22750.195312 9999.21875 C 22751.796875 10109.804688 22611.40625 9968.164062 22401.015625 9894.882812 C 22475.703125 9972.304688 23167.5 11864.882812 23167.5 11864.882812 C 23288.515625 11641.992188 23829.296875 10021.289062 23881.289062 9859.023438 C 23928.789062 9710.820312 23418.398438 9988.515625 23418.398438 9988.515625 C 23418.398438 9988.515625 24120.898438 9050.46875 24046.210938 9087.734375 C 23971.40625 9124.960938 23472.890625 9225.78125 23533.007812 9212.617188 C 23593.085938 9199.492188 24107.890625 8740.742188 24013.710938 8742.226562 C 23919.492188 8743.671875 23461.484375 9052.65625 23461.484375 9052.65625 L 23854.492188 8626.09375 C 23854.492188 8626.09375 23430.3125 8642.382812 23506.601562 8636.5625 C 23582.890625 8630.703125 23643.203125 8250.429688 23643.203125 8250.429688 " transform="matrix(0.1, 0, 0, -0.1, 0, 2250)"/>
<path fill="none" stroke-width="120" stroke-linecap="round" stroke-linejoin="round" stroke="rgb(0%, 0%, 0%)" stroke-opacity="1" stroke-miterlimit="4" d="M 20996.015625 7992.5 L 21761.992188 8007.5 L 21125.195312 9031.289062 L 21501.992188 8857.421875 L 21078.203125 9386.992188 L 21584.804688 9188.320312 C 21584.804688 9188.320312 20910.898438 10186.09375 21031.09375 11504.609375 C 20945 11443.203125 20241.796875 9431.5625 20241.796875 9431.5625 L 20615.3125 9790.195312 L 20233.59375 9122.578125 L 20616.914062 9251.875 C 20616.914062 9251.875 20019.414062 8453.164062 19810.585938 8053.789062 C 19756.71875 7950.742188 20533.90625 8061.601562 20469.296875 8010.351562 " transform="matrix(0.1, 0, 0, -0.1, 0, 2250)"/>
<path fill="none" stroke-width="120" stroke-linecap="round" stroke-linejoin="round" stroke="rgb(0%, 0%, 0%)" stroke-opacity="1" stroke-miterlimit="4" d="M 17778.398438 7782.109375 L 17979.804688 8102.03125 C 17979.804688 8102.03125 17499.101562 7985.15625 17565.703125 8068.4375 C 17632.304688 8151.71875 17960.390625 8637.460938 17960.390625 8637.460938 L 17422.8125 8384.726562 C 17422.8125 8384.726562 18192.617188 9478.945312 18150.390625 10656.40625 C 18368.007812 10101.992188 18543.398438 8916.484375 19227.109375 8435.117188 C 18762.617188 8377.421875 18655.390625 8438.789062 18655.390625 8438.789062 C 18655.390625 8438.789062 19308.28125 7924.53125 19241.71875 7947.929688 C 19175.195312 7971.289062 18665.195312 8090.351562 18726.914062 8080.117188 C 18788.59375 8069.882812 19215.703125 7668.164062 19092.304688 7699.570312 C 18968.90625 7730.976562 17778.398438 7782.109375 17778.398438 7782.109375 Z M 17778.398438 7782.109375 " transform="matrix(0.1, 0, 0, -0.1, 0, 2250)"/>
<path fill="none" stroke-width="120" stroke-linecap="round" stroke-linejoin="round" stroke="rgb(0%, 0%, 0%)" stroke-opacity="1" stroke-miterlimit="4" d="M 13987.1875 6973.4375 L 12782.5 7338.945312 L 13301.40625 7357.265625 L 12733.007812 8058.515625 C 12733.007812 8058.515625 13611.484375 7569.492188 13166.601562 8011.015625 C 13105.195312 8072.03125 12679.414062 8488.007812 12679.414062 8488.007812 C 12679.414062 8488.007812 13235.3125 8368.867188 13181.289062 8482.890625 C 13142.695312 8564.21875 12700.507812 8962.070312 12700.507812 8962.070312 C 12700.507812 8962.070312 13259.609375 8790.742188 13184.492188 8870.78125 C 13139.296875 8918.867188 12538.085938 10297.304688 12538.085938 10297.304688 C 12479.609375 10290 11723.398438 8986.914062 11723.398438 8986.914062 C 11723.398438 8986.914062 12348.90625 9106.5625 12223.789062 9034.960938 C 12098.789062 8963.398438 11670.898438 8520.898438 11670.898438 8520.898438 L 12205.195312 8609.257812 L 11565.3125 8049.023438 L 12042.8125 8030.742188 C 12042.8125 8030.742188 11688.59375 7377.734375 11597.695312 7324.414062 C 11506.71875 7271.09375 12278.984375 7369.84375 12278.984375 7369.84375 L 11383.007812 6695.898438 " transform="matrix(0.1, 0, 0, -0.1, 0, 2250)"/>
<path fill="none" stroke-width="120" stroke-linecap="round" stroke-linejoin="round" stroke="rgb(0%, 0%, 0%)" stroke-opacity="1" stroke-miterlimit="4" d="M 9541.484375 6861.054688 C 9457.03125 6903.398438 9996.445312 8179.765625 9926.640625 8142.5 C 9856.796875 8105.273438 9379.296875 7898.554688 9423.164062 7978.90625 C 9467.03125 8059.257812 10101.992188 8909.492188 10020.78125 8870.039062 C 9939.609375 8830.585938 9408.554688 8650.195312 9467.03125 8706.40625 C 9525.46875 8762.65625 10467.382812 10049.6875 10467.382812 10049.6875 C 10467.382812 10049.6875 11121.914062 8829.140625 11047.1875 8842.265625 C 10972.5 8855.429688 10376.484375 9112.539062 10460.898438 9054.84375 C 10545.390625 8997.148438 10962.8125 8337.539062 10896.210938 8388.671875 C 10829.609375 8439.804688 10392.695312 8716.640625 10485.3125 8659.6875 C 10577.890625 8602.695312 10925.390625 7842.304688 10880 7914.609375 C 10834.414062 7986.914062 10370 8239.648438 10456.09375 8165.15625 C 10542.109375 8090.664062 11086.210938 7358.75 11086.210938 7358.75 C 11086.210938 7358.75 10756.484375 7450.039062 10795.507812 7379.179688 C 10834.414062 7308.320312 11203.203125 6763.59375 11131.71875 6751.171875 " transform="matrix(0.1, 0, 0, -0.1, 0, 2250)"/>
<path fill="none" stroke-width="120" stroke-linecap="round" stroke-linejoin="round" stroke="rgb(0%, 0%, 0%)" stroke-opacity="1" stroke-miterlimit="4" d="M 13987.1875 6973.4375 L 14113.085938 9840.429688 L 15320.703125 7688.476562 " transform="matrix(0.1, 0, 0, -0.1, 0, 2250)"/>
<path fill="none" stroke-width="120" stroke-linecap="round" stroke-linejoin="round" stroke="rgb(0%, 0%, 0%)" stroke-opacity="1" stroke-miterlimit="4" d="M 15320.703125 7688.476562 C 15320.703125 7688.476562 15310.585938 10252.304688 15348.984375 10171.289062 L 16531.71875 7677.148438 " transform="matrix(0.1, 0, 0, -0.1, 0, 2250)"/>
<path fill="none" stroke-width="120" stroke-linecap="round" stroke-linejoin="round" stroke="rgb(0%, 0%, 0%)" stroke-opacity="1" stroke-miterlimit="4" d="M 20027.382812 6495.585938 C 19800.898438 6719.921875 20901.210938 9868.164062 21298.59375 6827.773438 C 21298.59375 6827.773438 22367.617188 9837.773438 23096.796875 7455.15625 C 23204.101562 7807.265625 24263.203125 9510.703125 25103.789062 7730.429688 C 25262.695312 8106.679688 27023.203125 10120.195312 27647.1875 7901.992188 C 27808.085938 8301.484375 30048.203125 10897.890625 31647.8125 7604.570312 " transform="matrix(0.1, 0, 0, -0.1, 0, 2250)"/>
<path fill="none" stroke-width="120" stroke-linecap="round" stroke-linejoin="round" stroke="rgb(0%, 0%, 0%)" stroke-opacity="1" stroke-miterlimit="4" d="M 31168.007812 5988.28125 C 31168.007812 5988.28125 31326.796875 9478.984375 35493.710938 9675.585938 C 36004.296875 9586.25 37146.914062 9202.8125 37488.710938 8581.679688 " transform="matrix(0.1, 0, 0, -0.1, 0, 2250)"/>
<path fill="none" stroke-width="120" stroke-linecap="round" stroke-linejoin="round" stroke="rgb(0%, 0%, 0%)" stroke-opacity="1" stroke-miterlimit="4" d="M 20710.507812 7775.585938 C 20684.21875 7765.859375 20983.007812 6739.335938 20941.09375 6746.601562 " transform="matrix(0.1, 0, 0, -0.1, 0, 2250)"/>
<path fill="none" stroke-width="120" stroke-linecap="round" stroke-linejoin="round" stroke="rgb(0%, 0%, 0%)" stroke-opacity="1" stroke-miterlimit="4" d="M 20405.585938 7577.5 C 20361.796875 7581.445312 20772.382812 7484.921875 20772.382812 7484.921875 " transform="matrix(0.1, 0, 0, -0.1, 0, 2250)"/>
<path fill="none" stroke-width="120" stroke-linecap="round" stroke-linejoin="round" stroke="rgb(0%, 0%, 0%)" stroke-opacity="1" stroke-miterlimit="4" d="M 20533.085938 7129.921875 C 20529.6875 7127.226562 20906.09375 6958.203125 20906.09375 6958.203125 " transform="matrix(0.1, 0, 0, -0.1, 0, 2250)"/>
<path fill="none" stroke-width="120" stroke-linecap="round" stroke-linejoin="round" stroke="rgb(0%, 0%, 0%)" stroke-opacity="1" stroke-miterlimit="4" d="M 21066.601562 7513.164062 C 21016.015625 7467.96875 20843.90625 7206.757812 20843.90625 7206.757812 " transform="matrix(0.1, 0, 0, -0.1, 0, 2250)"/>
<path fill="none" stroke-width="120" stroke-linecap="round" stroke-linejoin="round" stroke="rgb(0%, 0%, 0%)" stroke-opacity="1" stroke-miterlimit="4" d="M 22354.101562 8074.6875 C 22365.585938 8036.445312 22550.390625 6713.554688 22550.390625 6713.554688 " transform="matrix(0.1, 0, 0, -0.1, 0, 2250)"/>
<path fill="none" stroke-width="120" stroke-linecap="round" stroke-linejoin="round" stroke="rgb(0%, 0%, 0%)" stroke-opacity="1" stroke-miterlimit="4" d="M 21954.804688 7741.914062 C 21926.484375 7727.65625 22451.289062 7564.453125 22426.992188 7563.828125 " transform="matrix(0.1, 0, 0, -0.1, 0, 2250)"/>
<path fill="none" stroke-width="120" stroke-linecap="round" stroke-linejoin="round" stroke="rgb(0%, 0%, 0%)" stroke-opacity="1" stroke-miterlimit="4" d="M 21846.289062 7340.585938 C 21873.90625 7346.640625 22528.085938 6902.851562 22528.085938 6902.851562 " transform="matrix(0.1, 0, 0, -0.1, 0, 2250)"/>
<path fill="none" stroke-width="120" stroke-linecap="round" stroke-linejoin="round" stroke="rgb(0%, 0%, 0%)" stroke-opacity="1" stroke-miterlimit="4" d="M 22828.90625 7580.234375 C 22752.695312 7532.890625 22497.8125 7149.179688 22497.8125 7149.179688 " transform="matrix(0.1, 0, 0, -0.1, 0, 2250)"/>
<path fill="none" stroke-width="120" stroke-linecap="round" stroke-linejoin="round" stroke="rgb(0%, 0%, 0%)" stroke-opacity="1" stroke-miterlimit="4" d="M 22946.289062 7260.507812 C 22911.914062 7244.414062 22534.882812 6758.75 22534.882812 6758.75 " transform="matrix(0.1, 0, 0, -0.1, 0, 2250)"/>
<path fill="none" stroke-width="120" stroke-linecap="round" stroke-linejoin="round" stroke="rgb(0%, 0%, 0%)" stroke-opacity="1" stroke-miterlimit="4" d="M 24023.789062 8237.34375 C 23998.789062 8220.9375 24363.710938 6712.695312 24337.382812 6729.0625 " transform="matrix(0.1, 0, 0, -0.1, 0, 2250)"/>
<path fill="none" stroke-width="120" stroke-linecap="round" stroke-linejoin="round" stroke="rgb(0%, 0%, 0%)" stroke-opacity="1" stroke-miterlimit="4" d="M 23600.898438 7856.015625 C 23596.796875 7844.492188 24156.601562 7579.765625 24156.601562 7579.765625 " transform="matrix(0.1, 0, 0, -0.1, 0, 2250)"/>
<path fill="none" stroke-width="120" stroke-linecap="round" stroke-linejoin="round" stroke="rgb(0%, 0%, 0%)" stroke-opacity="1" stroke-miterlimit="4" d="M 24435.195312 8199.101562 C 24382.617188 8165.429688 24096.289062 7851.289062 24096.289062 7851.289062 " transform="matrix(0.1, 0, 0, -0.1, 0, 2250)"/>
<path fill="none" stroke-width="120" stroke-linecap="round" stroke-linejoin="round" stroke="rgb(0%, 0%, 0%)" stroke-opacity="1" stroke-miterlimit="4" d="M 23610.3125 7300.273438 C 23664.296875 7305.117188 24318.59375 6848.632812 24318.59375 6848.632812 " transform="matrix(0.1, 0, 0, -0.1, 0, 2250)"/>
<path fill="none" stroke-width="120" stroke-linecap="round" stroke-linejoin="round" stroke="rgb(0%, 0%, 0%)" stroke-opacity="1" stroke-miterlimit="4" d="M 24738.007812 7658.515625 C 24650.390625 7600.273438 24296.796875 7079.101562 24267.1875 7086.992188 " transform="matrix(0.1, 0, 0, -0.1, 0, 2250)"/>
<path fill="none" stroke-width="120" stroke-linecap="round" stroke-linejoin="round" stroke="rgb(0%, 0%, 0%)" stroke-opacity="1" stroke-miterlimit="4" d="M 26338.085938 8580.429688 C 26288.085938 8544.960938 26593.710938 6576.210938 26576.09375 6595.3125 " transform="matrix(0.1, 0, 0, -0.1, 0, 2250)"/>
<path fill="none" stroke-width="120" stroke-linecap="round" stroke-linejoin="round" stroke="rgb(0%, 0%, 0%)" stroke-opacity="1" stroke-miterlimit="4" d="M 25921.210938 8234.921875 C 25872.695312 8236.132812 26430.117188 8013.789062 26386.914062 8002.851562 " transform="matrix(0.1, 0, 0, -0.1, 0, 2250)"/>
<path fill="none" stroke-width="120" stroke-linecap="round" stroke-linejoin="round" stroke="rgb(0%, 0%, 0%)" stroke-opacity="1" stroke-miterlimit="4" d="M 27035.390625 8243.125 C 26975.390625 8224.023438 26429.492188 7680.15625 26429.492188 7680.15625 " transform="matrix(0.1, 0, 0, -0.1, 0, 2250)"/>
<path fill="none" stroke-width="120" stroke-linecap="round" stroke-linejoin="round" stroke="rgb(0%, 0%, 0%)" stroke-opacity="1" stroke-miterlimit="4" d="M 25586.71875 7689.804688 C 25580.585938 7672.8125 26486.40625 7339.921875 26473.59375 7360.859375 " transform="matrix(0.1, 0, 0, -0.1, 0, 2250)"/>
<path fill="none" stroke-width="120" stroke-linecap="round" stroke-linejoin="round" stroke="rgb(0%, 0%, 0%)" stroke-opacity="1" stroke-miterlimit="4" d="M 27210.78125 7756.5625 C 27149.414062 7725.3125 26510.3125 7099.21875 26510.3125 7099.21875 " transform="matrix(0.1, 0, 0, -0.1, 0, 2250)"/>
<path fill="none" stroke-width="120" stroke-linecap="round" stroke-linejoin="round" stroke="rgb(0%, 0%, 0%)" stroke-opacity="1" stroke-miterlimit="4" d="M 25536.09375 7206.25 C 25569.804688 7242.96875 26563.90625 6887.773438 26539.6875 6889.921875 " transform="matrix(0.1, 0, 0, -0.1, 0, 2250)"/>
<path fill="none" stroke-width="120" stroke-linecap="round" stroke-linejoin="round" stroke="rgb(0%, 0%, 0%)" stroke-opacity="1" stroke-miterlimit="4" d="M 29538.789062 8879.140625 C 29481.484375 8834.257812 29767.5 6448.710938 29742.5 6454.179688 " transform="matrix(0.1, 0, 0, -0.1, 0, 2250)"/>
<path fill="none" stroke-width="120" stroke-linecap="round" stroke-linejoin="round" stroke="rgb(0%, 0%, 0%)" stroke-opacity="1" stroke-miterlimit="4" d="M 30231.484375 8495.117188 C 30187.617188 8460.820312 29670.703125 7513.320312 29642.304688 7512.695312 " transform="matrix(0.1, 0, 0, -0.1, 0, 2250)"/>
<path fill="none" stroke-width="120" stroke-linecap="round" stroke-linejoin="round" stroke="rgb(0%, 0%, 0%)" stroke-opacity="1" stroke-miterlimit="4" d="M 28963.515625 8692.890625 C 28962.1875 8656.796875 29630.703125 7999.960938 29593.59375 7997.5 " transform="matrix(0.1, 0, 0, -0.1, 0, 2250)"/>
<path fill="none" stroke-width="120" stroke-linecap="round" stroke-linejoin="round" stroke="rgb(0%, 0%, 0%)" stroke-opacity="1" stroke-miterlimit="4" d="M 28424.609375 7782.226562 L 29701.992188 6930.117188 " transform="matrix(0.1, 0, 0, -0.1, 0, 2250)"/>
<path fill="none" stroke-width="120" stroke-linecap="round" stroke-linejoin="round" stroke="rgb(0%, 0%, 0%)" stroke-opacity="1" stroke-miterlimit="4" d="M 30723.203125 7457.96875 C 30634.804688 7428.242188 29733.59375 6612.5 29733.59375 6612.5 " transform="matrix(0.1, 0, 0, -0.1, 0, 2250)"/>
<path fill="none" stroke-width="120" stroke-linecap="round" stroke-linejoin="round" stroke="rgb(0%, 0%, 0%)" stroke-opacity="1" stroke-miterlimit="4" d="M 33234.296875 8428.398438 C 33227.5 8386.5625 35094.414062 5652.148438 35252.304688 4204.570312 " transform="matrix(0.1, 0, 0, -0.1, 0, 2250)"/>
<path fill="none" stroke-width="120" stroke-linecap="round" stroke-linejoin="round" stroke="rgb(0%, 0%, 0%)" stroke-opacity="1" stroke-miterlimit="4" d="M 36559.414062 8186.953125 C 36266.601562 8056.523438 34773.085938 5687.421875 34773.085938 5687.421875 " transform="matrix(0.1, 0, 0, -0.1, 0, 2250)"/>
<path fill="none" stroke-width="120" stroke-linecap="round" stroke-linejoin="round" stroke="rgb(0%, 0%, 0%)" stroke-opacity="1" stroke-miterlimit="4" d="M 36101.601562 8765.15625 C 36057.1875 8654.101562 36060.585938 7611.601562 36060.585938 7611.601562 " transform="matrix(0.1, 0, 0, -0.1, 0, 2250)"/>
<path fill="none" stroke-width="120" stroke-linecap="round" stroke-linejoin="round" stroke="rgb(0%, 0%, 0%)" stroke-opacity="1" stroke-miterlimit="4" d="M 36810.3125 7614.84375 C 36703.710938 7601.484375 35831.40625 7289.921875 35831.40625 7289.921875 " transform="matrix(0.1, 0, 0, -0.1, 0, 2250)"/>
<path fill="none" stroke-width="120" stroke-linecap="round" stroke-linejoin="round" stroke="rgb(0%, 0%, 0%)" stroke-opacity="1" stroke-miterlimit="4" d="M 35256.289062 7665.195312 C 35273.789062 7597.226562 35505 6811.71875 35505 6811.71875 " transform="matrix(0.1, 0, 0, -0.1, 0, 2250)"/>
<path fill="none" stroke-width="120" stroke-linecap="round" stroke-linejoin="round" stroke="rgb(0%, 0%, 0%)" stroke-opacity="1" stroke-miterlimit="4" d="M 36567.5 6505.78125 C 36452.8125 6511.25 35119.414062 6227.148438 35119.414062 6227.148438 " transform="matrix(0.1, 0, 0, -0.1, 0, 2250)"/>
<path fill="none" stroke-width="120" stroke-linecap="round" stroke-linejoin="round" stroke="rgb(0%, 0%, 0%)" stroke-opacity="1" stroke-miterlimit="4" d="M 34092.1875 8639.53125 C 34009.882812 8530.351562 33987.109375 7285.46875 33919.6875 7300.625 " transform="matrix(0.1, 0, 0, -0.1, 0, 2250)"/>
<path fill="none" stroke-width="120" stroke-linecap="round" stroke-linejoin="round" stroke="rgb(0%, 0%, 0%)" stroke-opacity="1" stroke-miterlimit="4" d="M 32940.195312 7600.859375 C 32910.585938 7555.976562 34138.984375 6919.570312 34138.984375 6919.570312 " transform="matrix(0.1, 0, 0, -0.1, 0, 2250)"/>
<path fill="none" stroke-width="120" stroke-linecap="round" stroke-linejoin="round" stroke="rgb(0%, 0%, 0%)" stroke-opacity="1" stroke-miterlimit="4" d="M 33419.101562 5646.679688 C 33473.085938 5679.453125 35163.007812 4913.242188 35071.289062 4949.023438 " transform="matrix(0.1, 0, 0, -0.1, 0, 2250)"/>
<path fill="none" stroke-width="120" stroke-linecap="round" stroke-linejoin="round" stroke="rgb(0%, 0%, 0%)" stroke-opacity="1" stroke-miterlimit="4" d="M 36246.40625 5916.679688 C 36111.484375 5851.757812 35281.484375 4386.289062 35222.1875 4400.859375 " transform="matrix(0.1, 0, 0, -0.1, 0, 2250)"/>
<path fill="none" stroke-width="120" stroke-linecap="round" stroke-linejoin="round" stroke="rgb(0%, 0%, 0%)" stroke-opacity="1" stroke-miterlimit="4" d="M 19880.585938 7581.835938 L 19872.1875 6492.65625 " transform="matrix(0.1, 0, 0, -0.1, 0, 2250)"/>
<path fill="none" stroke-width="120" stroke-linecap="round" stroke-linejoin="round" stroke="rgb(0%, 0%, 0%)" stroke-opacity="1" stroke-miterlimit="4" d="M 18536.484375 7726.289062 C 18459.609375 7678.359375 18741.601562 6632.382812 18741.601562 6632.382812 " transform="matrix(0.1, 0, 0, -0.1, 0, 2250)"/>
<path fill="none" stroke-width="120" stroke-linecap="round" stroke-linejoin="round" stroke="rgb(0%, 0%, 0%)" stroke-opacity="1" stroke-miterlimit="4" d="M 19434.296875 7795.585938 L 19473.398438 6481.601562 " transform="matrix(0.1, 0, 0, -0.1, 0, 2250)"/>
<path fill="none" stroke-width="120" stroke-linecap="round" stroke-linejoin="round" stroke="rgb(0%, 0%, 0%)" stroke-opacity="1" stroke-miterlimit="4" d="M 18251.796875 7759.765625 L 18276.796875 7170.390625 " transform="matrix(0.1, 0, 0, -0.1, 0, 2250)"/>
<path fill="none" stroke-width="120" stroke-linecap="round" stroke-linejoin="round" stroke="rgb(0%, 0%, 0%)" stroke-opacity="1" stroke-miterlimit="4" d="M 18856.09375 6463.632812 C 18856.09375 6463.632812 29339.804688 6810.625 30947.695312 6092.265625 C 32555.585938 5373.945312 31211.992188 5218.632812 31454.804688 4662.890625 C 31697.695312 4107.148438 37500 2679.140625 37500 2679.140625 " transform="matrix(0.1, 0, 0, -0.1, 0, 2250)"/>
<path fill="none" stroke-width="120" stroke-linecap="round" stroke-linejoin="round" stroke="rgb(0%, 0%, 0%)" stroke-opacity="1" stroke-miterlimit="4" d="M 22378.203125 6077.5 C 22378.203125 6077.5 28135.195312 6264.296875 30069.414062 5675.273438 " transform="matrix(0.1, 0, 0, -0.1, 0, 2250)"/>
<path fill="none" stroke-width="120" stroke-linecap="round" stroke-linejoin="round" stroke="rgb(0%, 0%, 0%)" stroke-opacity="1" stroke-miterlimit="4" d="M 20131.796875 5826.601562 C 20053.007812 5702.539062 20125.703125 5707.96875 21444.492188 5575.703125 " transform="matrix(0.1, 0, 0, -0.1, 0, 2250)"/>
<path fill="none" stroke-width="120" stroke-linecap="round" stroke-linejoin="round" stroke="rgb(0%, 0%, 0%)" stroke-opacity="1" stroke-miterlimit="4" d="M 20292.5 5112.109375 C 20253.085938 5118.945312 22551.015625 4903.515625 22551.015625 4903.515625 " transform="matrix(0.1, 0, 0, -0.1, 0, 2250)"/>
<path fill="none" stroke-width="120" stroke-linecap="round" stroke-linejoin="round" stroke="rgb(0%, 0%, 0%)" stroke-opacity="1" stroke-miterlimit="4" d="M 26088.90625 5789.804688 C 26088.90625 5789.804688 27510.703125 5822.5 29065.898438 5622.070312 " transform="matrix(0.1, 0, 0, -0.1, 0, 2250)"/>
<path fill="none" stroke-width="120" stroke-linecap="round" stroke-linejoin="round" stroke="rgb(0%, 0%, 0%)" stroke-opacity="1" stroke-miterlimit="4" d="M 24121.40625 5438.007812 C 24242.695312 5517.070312 25976.796875 5274.375 25388.59375 4801.25 C 24800.507812 4328.085938 25952.5 2859.570312 31761.09375 2096.015625 " transform="matrix(0.1, 0, 0, -0.1, 0, 2250)"/>
<path fill="none" stroke-width="120" stroke-linecap="round" stroke-linejoin="round" stroke="rgb(0%, 0%, 0%)" stroke-opacity="1" stroke-miterlimit="4" d="M 30126.992188 5045.3125 C 30136.09375 5124.375 31091.09375 4914.414062 30784.804688 4585.820312 C 30478.710938 4257.1875 30687.890625 3661.328125 31882.304688 3383.164062 C 33076.796875 3105 35981.015625 2116.445312 35981.015625 2116.445312 " transform="matrix(0.1, 0, 0, -0.1, 0, 2250)"/>
<path fill="none" stroke-width="120" stroke-linecap="round" stroke-linejoin="round" stroke="rgb(0%, 0%, 0%)" stroke-opacity="1" stroke-miterlimit="4" d="M 29305.390625 3561.796875 C 29408.515625 3495 35383.789062 1625.585938 35383.789062 1625.585938 " transform="matrix(0.1, 0, 0, -0.1, 0, 2250)"/>
<path fill="none" stroke-width="120" stroke-linecap="round" stroke-linejoin="round" stroke="rgb(0%, 0%, 0%)" stroke-opacity="1" stroke-miterlimit="4" d="M 23130.117188 3695.429688 C 22902.695312 3575.429688 22802.695312 2451.875 26928.710938 1842.382812 C 31054.6875 1232.890625 31388.203125 658.867188 31785.3125 440.703125 " transform="matrix(0.1, 0, 0, -0.1, 0, 2250)"/>
<path fill="none" stroke-width="120" stroke-linecap="round" stroke-linejoin="round" stroke="rgb(0%, 0%, 0%)" stroke-opacity="1" stroke-miterlimit="4" d="M 19670 2952.109375 C 19670 2952.109375 23933.90625 3860.039062 22785.507812 0 " transform="matrix(0.1, 0, 0, -0.1, 0, 2250)"/>
<path fill="none" stroke-width="120" stroke-linecap="round" stroke-linejoin="round" stroke="rgb(0%, 0%, 0%)" stroke-opacity="1" stroke-miterlimit="4" d="M 21323.085938 2582.734375 L 20988.90625 329.726562 " transform="matrix(0.1, 0, 0, -0.1, 0, 2250)"/>
<path fill="none" stroke-width="120" stroke-linecap="round" stroke-linejoin="round" stroke="rgb(0%, 0%, 0%)" stroke-opacity="1" stroke-miterlimit="4" d="M 20905.390625 2359.453125 L 21179.6875 1616.015625 " transform="matrix(0.1, 0, 0, -0.1, 0, 2250)"/>
<path fill="none" stroke-width="120" stroke-linecap="round" stroke-linejoin="round" stroke="rgb(0%, 0%, 0%)" stroke-opacity="1" stroke-miterlimit="4" d="M 21931.09375 2346.09375 C 21746.210938 2298.125 21106.796875 1124.492188 21106.796875 1124.492188 " transform="matrix(0.1, 0, 0, -0.1, 0, 2250)"/>
<path fill="none" stroke-width="120" stroke-linecap="round" stroke-linejoin="round" stroke="rgb(0%, 0%, 0%)" stroke-opacity="1" stroke-miterlimit="4" d="M 22151.484375 974.140625 C 22012.8125 1015.703125 21013.789062 443.242188 21013.789062 443.242188 " transform="matrix(0.1, 0, 0, -0.1, 0, 2250)"/>
<path fill="none" stroke-width="120" stroke-linecap="round" stroke-linejoin="round" stroke="rgb(0%, 0%, 0%)" stroke-opacity="1" stroke-miterlimit="4" d="M 19950.78125 1906.367188 L 21056.71875 786.679688 " transform="matrix(0.1, 0, 0, -0.1, 0, 2250)"/>
<path fill="none" stroke-width="120" stroke-linecap="round" stroke-linejoin="round" stroke="rgb(0%, 0%, 0%)" stroke-opacity="1" stroke-miterlimit="4" d="M 19947.304688 902.1875 L 21013.789062 443.242188 " transform="matrix(0.1, 0, 0, -0.1, 0, 2250)"/>
<path fill="none" stroke-width="120" stroke-linecap="round" stroke-linejoin="round" stroke="rgb(0%, 0%, 0%)" stroke-opacity="1" stroke-miterlimit="4" d="M 16528.203125 7328.945312 C 16279.296875 7252.226562 16176.210938 160.546875 16176.210938 160.546875 " transform="matrix(0.1, 0, 0, -0.1, 0, 2250)"/>
<path fill="none" stroke-width="120" stroke-linecap="round" stroke-linejoin="round" stroke="rgb(0%, 0%, 0%)" stroke-opacity="1" stroke-miterlimit="4" d="M 16990.390625 7071.523438 L 16369.804688 6201.71875 " transform="matrix(0.1, 0, 0, -0.1, 0, 2250)"/>
<path fill="none" stroke-width="120" stroke-linecap="round" stroke-linejoin="round" stroke="rgb(0%, 0%, 0%)" stroke-opacity="1" stroke-miterlimit="4" d="M 15312.304688 7180.234375 C 15258.90625 7106.679688 16337.304688 5651.992188 16337.304688 5651.992188 " transform="matrix(0.1, 0, 0, -0.1, 0, 2250)"/>
<path fill="none" stroke-width="120" stroke-linecap="round" stroke-linejoin="round" stroke="rgb(0%, 0%, 0%)" stroke-opacity="1" stroke-miterlimit="4" d="M 15181.992188 5350.898438 C 15178.515625 5352.5 15095.390625 5458.359375 16249.492188 3413.28125 " transform="matrix(0.1, 0, 0, -0.1, 0, 2250)"/>
<path fill="none" stroke-width="120" stroke-linecap="round" stroke-linejoin="round" stroke="rgb(0%, 0%, 0%)" stroke-opacity="1" stroke-miterlimit="4" d="M 18273.789062 5851.445312 C 18014.296875 5769.921875 16265.195312 3911.523438 16265.195312 3911.523438 " transform="matrix(0.1, 0, 0, -0.1, 0, 2250)"/>
<path fill="none" stroke-width="120" stroke-linecap="round" stroke-linejoin="round" stroke="rgb(0%, 0%, 0%)" stroke-opacity="1" stroke-miterlimit="4" d="M 18910.195312 3686.367188 C 18753.710938 3662.382812 16188.59375 883.4375 16188.59375 883.4375 " transform="matrix(0.1, 0, 0, -0.1, 0, 2250)"/>
<path fill="none" stroke-width="120" stroke-linecap="round" stroke-linejoin="round" stroke="rgb(0%, 0%, 0%)" stroke-opacity="1" stroke-miterlimit="4" d="M 15713.515625 2028.945312 L 16204.101562 1647.148438 " transform="matrix(0.1, 0, 0, -0.1, 0, 2250)"/>
<path fill="none" stroke-width="120" stroke-linecap="round" stroke-linejoin="round" stroke="rgb(0%, 0%, 0%)" stroke-opacity="1" stroke-miterlimit="4" d="M 18293.59375 0 C 18293.59375 0 19396.40625 1402.304688 19712.8125 3062.109375 C 20029.21875 4721.875 18105.898438 10380.117188 13068.203125 6128.28125 " transform="matrix(0.1, 0, 0, -0.1, 0, 2250)"/>
<path fill="none" stroke-width="120" stroke-linecap="round" stroke-linejoin="round" stroke="rgb(0%, 0%, 0%)" stroke-opacity="1" stroke-miterlimit="4" d="M 14987.382812 0 C 14987.382812 0 16943.203125 4429.375 13203.085938 6069.960938 C 9463.046875 7710.546875 8115.625 6348.203125 8115.625 6348.203125 " transform="matrix(0.1, 0, 0, -0.1, 0, 2250)"/>
<path fill="none" stroke-width="120" stroke-linecap="round" stroke-linejoin="round" stroke="rgb(0%, 0%, 0%)" stroke-opacity="1" stroke-miterlimit="4" d="M 8400.3125 0 C 8400.3125 0 9708.359375 3980.039062 7984.0625 6442.539062 C 6259.804688 8905.039062 1368.75 10077.109375 0 7395.507812 " transform="matrix(0.1, 0, 0, -0.1, 0, 2250)"/>
<path fill="none" stroke-width="120" stroke-linecap="round" stroke-linejoin="round" stroke="rgb(0%, 0%, 0%)" stroke-opacity="1" stroke-miterlimit="4" d="M 13611.914062 4769.960938 C 13434.21875 4658.046875 10401.601562 1837.34375 9740.351562 329.492188 " transform="matrix(0.1, 0, 0, -0.1, 0, 2250)"/>
<path fill="none" stroke-width="120" stroke-linecap="round" stroke-linejoin="round" stroke="rgb(0%, 0%, 0%)" stroke-opacity="1" stroke-miterlimit="4" d="M 12186.289062 5686.210938 C 12157.890625 5492.734375 12076.09375 3343.632812 12076.09375 3343.632812 " transform="matrix(0.1, 0, 0, -0.1, 0, 2250)"/>
<path fill="none" stroke-width="120" stroke-linecap="round" stroke-linejoin="round" stroke="rgb(0%, 0%, 0%)" stroke-opacity="1" stroke-miterlimit="4" d="M 11461.09375 2648.046875 L 13928.398438 2721.601562 " transform="matrix(0.1, 0, 0, -0.1, 0, 2250)"/>
<path fill="none" stroke-width="120" stroke-linecap="round" stroke-linejoin="round" stroke="rgb(0%, 0%, 0%)" stroke-opacity="1" stroke-miterlimit="4" d="M 10025.507812 850.234375 C 10149.882812 917.421875 13530.195312 821.953125 13380.898438 914.726562 " transform="matrix(0.1, 0, 0, -0.1, 0, 2250)"/>
<path fill="none" stroke-width="120" stroke-linecap="round" stroke-linejoin="round" stroke="rgb(0%, 0%, 0%)" stroke-opacity="1" stroke-miterlimit="4" d="M 9363.476562 5383.984375 C 9210.625 5391.992188 10223.710938 1145.039062 10223.710938 1145.039062 " transform="matrix(0.1, 0, 0, -0.1, 0, 2250)"/>
<path fill="none" stroke-width="120" stroke-linecap="round" stroke-linejoin="round" stroke="rgb(0%, 0%, 0%)" stroke-opacity="1" stroke-miterlimit="4" d="M 2740.15625 8661.992188 C 2544.609375 8543.671875 5474.101562 244.726562 5474.101562 244.726562 " transform="matrix(0.1, 0, 0, -0.1, 0, 2250)"/>
<path fill="none" stroke-width="120" stroke-linecap="round" stroke-linejoin="round" stroke="rgb(0%, 0%, 0%)" stroke-opacity="1" stroke-miterlimit="4" d="M 7557.460938 3956.054688 C 7351.25 3975.234375 5144.453125 1184.726562 5144.453125 1184.726562 " transform="matrix(0.1, 0, 0, -0.1, 0, 2250)"/>
<path fill="none" stroke-width="120" stroke-linecap="round" stroke-linejoin="round" stroke="rgb(0%, 0%, 0%)" stroke-opacity="1" stroke-miterlimit="4" d="M 6416.210938 6645.625 C 6096.25 6434.53125 4334.882812 3525.078125 4334.882812 3525.078125 " transform="matrix(0.1, 0, 0, -0.1, 0, 2250)"/>
<path fill="none" stroke-width="120" stroke-linecap="round" stroke-linejoin="round" stroke="rgb(0%, 0%, 0%)" stroke-opacity="1" stroke-miterlimit="4" d="M 4453.75 8492.5 C 4275.976562 8380.546875 3387.539062 6348.75 3387.539062 6348.75 " transform="matrix(0.1, 0, 0, -0.1, 0, 2250)"/>
<path fill="none" stroke-width="120" stroke-linecap="round" stroke-linejoin="round" stroke="rgb(0%, 0%, 0%)" stroke-opacity="1" stroke-miterlimit="4" d="M 955.429688 6864.6875 C 870.117188 6733.554688 3954.84375 4924.257812 3869.53125 4895.46875 " transform="matrix(0.1, 0, 0, -0.1, 0, 2250)"/>
<path fill="none" stroke-width="120" stroke-linecap="round" stroke-linejoin="round" stroke="rgb(0%, 0%, 0%)" stroke-opacity="1" stroke-miterlimit="4" d="M 1648.710938 3465.15625 C 1780.234375 3508.320312 4749.960938 2319.414062 4749.960938 2319.414062 " transform="matrix(0.1, 0, 0, -0.1, 0, 2250)"/>
<path fill="none" stroke-width="120" stroke-linecap="round" stroke-linejoin="round" stroke="rgb(0%, 0%, 0%)" stroke-opacity="1" stroke-miterlimit="4" d="M 2605.039062 1234.53125 C 2832.578125 1263.320312 5292.65625 761.09375 5292.65625 761.09375 " transform="matrix(0.1, 0, 0, -0.1, 0, 2250)"/>
</svg>
